<?xml version="1.0" encoding="UTF-8"?>
<svg version="1.1" viewBox="0 0 2048 538" width="2560" height="673" xmlns="http://www.w3.org/2000/svg">
<path transform="translate(895,16)" d="m0 0h32l13 4 10 5 10 8 8 10 6 13 20 65 20 64 28 91 2-3 22-74 21-71 22-74 6-12 9-10 7-6 14-7 11-3h33l16 5 11 7 8 7 7 10 4 8 22 71 21 69 54 176 21 69 3 11v21l-3 13-6 12-8 10-10 8-12 6-13 3h-13l-16-4-11-6-10-9-7-9-5-10-18-57-18-58-25-80-8-26v-3h-2l-2 10-18 59-19 63-23 76-6 19-7 12-10 10-13 8-13 4-6 1h-25l-16-4-11-6-10-9-6-7-7-14-20-66-42-138-5-17-2 4-22 72-40 132-5 13-6 10-9 10-10 7-8 4-10 3-10 1h-234l-12-2-13-5-12-9-8-9-7-14-3-11v-21l4-13 7-12 12-12 15-8 13-3 178-1 8-3 5-5 5-8 25-82 27-87 16-52 25-81 8-26 5-10 8-10 8-7 16-8z" fill="gray"/>
<path transform="translate(248,16)" d="m0 0h40l24 3 26 6 26 9 18 8 19 10 9 7 8 8 7 12 4 13 1 7v10l-3 15-8 16-10 11-11 7-9 4-8 2h-20l-10-3-22-12-14-6-17-5-22-3h-16l-21 3-17 5-18 8-14 9-10 8-7 6-7 8-9 12-9 16-6 14-5 18-2 13v27l3 18 7 21 8 16 8 12 9 11 10 10 15 11 16 9 15 6 15 4 13 2h29l17-3 21-7 19-10 12-9 10-9 7-7 11-15 11-21 8-25 18-57 24-78 14-45 18-58 6-12 9-10 9-7 11-5 13-3h244l16 4 11 6 10 9 7 8 6 13 3 14v9l-3 15-8 16-9 10-10 7-11 5-16 3-176 1-9 4-6 7-7 21-22 72-21 69-11 36-8 20-8 16-9 16-8 12-10 13-12 14-17 17-11 9-16 12-20 12-16 8-19 8-26 8-26 5-21 2h-28l-27-3-20-4-26-8-21-9-21-11-21-14-16-13-13-12-8-8-9-11-11-14-12-19-12-23-9-23-7-25-4-22-2-21v-26l2-21 4-22 5-19 7-20 10-22 13-22 10-14 9-11 11-12 15-15 14-11 14-10 13-8 21-11 20-8 19-6 22-5z" fill="gray"/>
<path transform="translate(1759,16)" d="m0 0h40l24 3 22 5 20 6 21 9 16 8 10 6 10 9 7 10 5 13 1 6v20l-4 14-7 12-9 10-10 7-12 5-10 2h-13l-16-4-22-11-21-7-15-3-9-1h-16l-21 3-20 6-16 8-12 7-11 9-7 6-7 8-9 12-8 14-7 16-5 18-2 14v25l3 19 5 16 8 18 10 15 9 11 10 10 15 11 16 9 15 6 15 4 13 2h29l17-3 21-7 17-9 14-10 12-11 11-12 10-15 3-5-127-1-12-3-14-7-10-8-9-12-5-11-3-14v-11l3-14 8-16 8-9 13-9 13-5 5-1h214l14 4 12 7 9 8 7 10 5 11 3 14v19l-3 28-6 27-8 24-9 20-9 17-12 18-10 13-12 14-13 13-11 9-10 8-18 12-16 9-21 10-27 9-21 5-21 3-13 1h-27l-22-2-26-5-26-8-21-9-21-11-21-14-16-13-13-12-8-8-9-11-11-14-12-19-12-23-9-23-7-25-4-22-2-21v-26l2-21 4-22 5-19 7-20 11-24 10-17 12-17 9-11 9-10 17-17 14-11 14-10 13-8 21-11 20-8 19-6 22-5z" fill="gray"/>
<path transform="translate(1432,16)" d="m0 0h19l12 3 12 6 10 9 7 8 7 14 2 8v408l-4 14-6 11-10 11-12 8-11 4-10 2h-13l-16-4-13-7-11-10-9-14-4-12-1-5v-402l3-12 7-14 9-10 7-6 16-8z" fill="gray"/>
<path transform="translate(609,209)" d="m0 0h102l13 4 12 7 11 11 8 14 3 9 1 6v18l-3 12-6 12-9 11-11 8-11 5-12 3h-96l-15-4-11-6-9-7-9-12-5-11-3-12v-16l3-13 6-12 8-10 8-7 14-7z" fill="gray"/>
</svg>
