<?xml version="1.0" encoding="UTF-8"?>
<svg version="1.1" viewBox="0 0 2048 774" width="2968" height="1122" xmlns="http://www.w3.org/2000/svg">
<path transform="translate(332,10)" d="m0 0 15 2 10 5 8 7 3 3 10-6 6-2h16l9 4 8 6 7 7 7 12 10 24 7 13 29 1 22 3 21 6 25 9 8 3 4-1 14-12 13-11 8-6h2l18 34 12 22 5 9 1 1h10l16-8 15-10 14-11 13-11 20-18 15-15 2-1h7l16 6 14 6 10 7 9 8 9 13 2 3-1 4-10 5-29 12-24 11-21 11-21 14-11 9-4 4 49 17 20 8-1 4-9 10-11 9-12 10-18 13-11 7-16 13-16 12-15 12-4-2-14-23-13-21-4-6-4 2-17 16-8 7-11 10-8 7-10 9-11 9-11 10-11 9-15 13-11 9-17 14-13 10-18 14-19 13-10 7-13 8-7 4-12 23-8 12-3 4-4 13-6 11-6 10-13 30-11 26-13 28-9 27-3 18v26l4 32-25 5-34 7-12 3h-4l-2-6-1-7v-17l4-26 10-57 4-30 2-28 1-6-29 1-25 3-23 5-24 8-25 12-12 8-14 11-9 9-6-1-6-2-7-1-18-1-25-6-19-7-9-5 2-6 15-30 12-22 10-21v-8l-2-5v-9l4-11 6-11 10-16 3-5-16 3-12 3 1-9 6-10 9-10 5-4 9-4 10-2h9l20 4 8 3 4-1 18-18 11-9 15-11 15-9 21-10 12-4h3l3-10 13-26 8-15 6-16 3-11-7 4-5 4-5-1-10-11-13-17-13-18-12-17-11-15-6-13-3-15v-10l3-14 7-14 3-4 5 1 5 2h7l17-5 11-6 4-5 2-13 2-16 4-8 11-10 14-9 15-7 13-4h5l4 8 8 21 5 5 16 6 11 6 9 9-3 3-21 8-6 3 1 8 3 7 14 1 5 4 9 14 9 21 3 14v22l-4 26-1 9 24-14 17-9 8-16 16-36 13-30-1-7-10-23-7-14-7-9-5-4-10-4h-9l-21 5h-11l-10-2-12-5-9-7-7-8-3-5 1-4 8-5 13-4zm2 10-9 3-5 3 2 4 9 6 16 5 6 1h21l9-3h10l8 3 5 4 7 10 9 19 8 19 5-2 4-3-1-6-10-24-9-15-7-8-9-6-7-2h-9l-11 4-8 4-9-8-14-7zm-61 13-13 4-10 6-5 4-7 10-4 12-2 19-4 8-9 6-15 5v1h9l20-4 6-3 11-7 16-7 24-8 32-8-4-3-8-2h-14l-15 4-27 10-4 1 5-5 10-7 21-10 2-4-5-13-6-9zm468 51-10 5-17 14-11 9-13 11-17 13-15 10-17 10 3 2 7 1h15l20-4 16-6 34-16 13-6 1-3-4-7-6-8-1-2 22 10 7 1 13-5 3-2-1-5-10-10-10-6-10-4-4-2zm-464 6-11 2-16 8-3 3 4 11 6 10 3 4 5-2 14-9 21-11-2-6-4-5-8-4zm175 9-9 3-5 7-20 47-11 29-12 36v4l-3-2-3-11-3-12-16 8-12 9-10 9-8 8-11 14-12 19-10 21-7 21-3 15-1 13 19 10 25 14 25 16 1 2-8 17 8 7 11 7 6-2 21-13 23-16 19-14 28-22 22-18 26-22 14-12 13-12 8-7 24-22 9-9 2-1v-2l4-2 1-5-10-19h-7l-19 7-38 19-22 12-34 18-20 10-8 2 20-20 8-7 13-12 11-9 14-12 17-13 18-14 18-13 16-11h3l8 18 13 24 17 28 14 22 11 16 3 1 46-32 6-5-3-5-12-14-3-5 3-1 16 8 7 4 9 1 5-3 11-9 1-4-9-4-16-6-12-3h-9l-16 10-6 4h-5l-8-8-12-16-12-20-15-28-17-34-4-2-13 11-11 9-10 9-11 9-11 10-11 9-14 12-17 13-3 2 14-28 12-22 10-19 3-6-11-5-24-6-25-4zm-276 9-4 8-3 15v9l3 14 6 12 5-3 7-10 4-11v-13l-3-9-7-8zm62 5-14 4h-24l2 11 1 10v7l5 10 10 9 14 8 5-4 10-13 8-10-1-6-15-26zm70 1-12 2-10 5-6 7-6 16-6 25-7 36-6 24-11 34-1 8 9 3 3-1 8-16 14-26 9-19 5-17 1-6 1-23 4-19 6-16 6-14zm-49 39-11 12-11 14-14 19 1-7 2-6v-5l-9-7-10-9-8-9-4 2-6 5-6 8 1 4 8 14 12 17 14 18 10 13 5-2 9-7 6-7 3-7 10-56v-4zm72 29-8 7-10 14-10 16-18 27-11 18-12 20-13 25-9 23-6 21-3 19 28 17 24 16 16 12 14 12 8 8h2l11-17 9-15-2-4-13-11-14-11-17-14-14-11-15-12h-9l6-4 3-1 9-29 9-21 11-21 12-19 9-13v-2l-7-1-6 1 4-5 10-7 8-9 5-13 3-12v-4zm-91 97-4 4-10 15-6 11v6l4 6 6 7 4-2 4-13v-2l-5-1 1-4 9-4 11-20v-3zm-21 46-22 6-18 8-16 9-12 9-13 11-9 9-7 9 1 4 7 9 5-1 16-7 14-3 17-2-1 8 4 1 7-4 10-9 13-14 7-6 4-9 5-20-11-8zm-141 56-13 3-10 6-6 6 1 2 8-2 17-1 14 3 8 4 10 9 7 11 5-5 2-4v-12l-5-8-8-6-9-4-10-2zm274 24-14 23-4 6 8 16v15l-5 13-5 7 2 4 3 1 9-7 9-12 6-15 4-14 7-3 6-10 2-6-8-7-16-10zm-187-7-17 4-16 8-8 9-5 5-6 2h-9l-10-5-11-7-6-2-6 1-9 9-7 11-5 13v9l2 6v7l-9 20-14 29-3 9h16l2 1-1 4-5 8-9-3h-9l-3 5v2l23 9 15 4h13v-8l3-8 9-10 3-1 8 3-1 3-8 6-7 8v6l3 3 8 2 17-16 5-5-2-6-5-6-10-6-14-4-22-3 13-2h10l12 2 12 5 8 6 7 9 9-3 23-10 20-7 19-5 12-2 38-3 8-1 8-11 14-22 1-1-1 22-6 60-5 46-10 51-2 16v9l45-6-2-2h-15l-20 1 6-22 3-3 24-6 2-1 5-27 7-24 11-29 13-31 8-21-1-4-11-7h-2l7-12 6-10 2-5v-12l-4-8-5 3-6-1-5-4-7-8-8-7-3-1h-13l-18 3-15 4-19 7-20 10-19 12-12 9-14 11-15 13-12 11-11 10 2-5 10-17 12-19 12-20 1-5-17-10-6-4-1-2 4-2 15-15 6-10 2-5v-4z" fill="gray"/>
<path transform="translate(1706,107)" d="m0 0h21l20 3 24 8 14 8 12 11 7 8 8 14 5 12 3 12 2 18-1 21-4 20-6 18-10 19-8 11-9 10-7 7-15 11-16 9-19 7-16 4-15 2h-22l-15-2-19-5-19-9-11-8-10-9-9-12-8-16-4-15-1-6v-27l3-20 6-20 8-16 7-11 11-13 10-10 15-11 16-9 20-8 23-5zm-6 46-16 4-14 6-13 9-10 10-9 14-5 12-3 17v21l4 15 5 10 9 10 10 7 13 5 14 2 16-1 16-4 16-8 11-8 10-10 8-13 5-13 3-17v-19l-4-16-6-11-9-10-10-6-13-5-6-1z" fill="gray"/>
<path transform="translate(1905,385)" d="m0 0h30l21 4 19 7 14 8 13 12 9 12 7 14 5 17 2 14v21l-3 19-6 20-10 21-10 14-9 10-11 10-10 7-14 8-14 6-16 5-17 3h-34l-20-4-16-6-13-7-13-10-7-7-9-13-6-12-4-13-2-13v-19l3-23 5-18 10-21 10-14 11-12 7-7 17-12 21-11 18-6 14-3zm3 45-16 3-13 5-11 6-10 8-8 8-9 14-5 13-3 19v14l3 15 4 9 6 9 8 8 10 6 13 4 5 1h20l17-4 14-6 13-9 11-11 7-11 5-11 3-11 1-7v-25l-3-12-6-12-8-9-10-7-13-5-12-2z" fill="gray"/>
<path transform="translate(1281,385)" d="m0 0h30l18 3 18 6 14 7 9 7 8 7 9 12 8 16 4 13 2 11 1 20-2 19-4 17-7 19-9 16-9 12-9 10-12 10-14 9-16 8-18 6-20 4h-34l-20-4-16-6-15-8-11-9-9-9-9-14-5-11-4-14-1-7v-26l4-25 6-18 9-17 8-11 11-13 8-7 12-9 15-9 19-8 19-5zm4 45-16 3-14 5-15 9-10 9-9 12-6 12-4 15-1 7v21l4 16 6 11 8 9 11 7 10 4 10 2h19l15-3 16-7 11-7 12-11 7-10 6-12 4-15 1-8v-19l-3-14-6-12-9-10-8-6-11-5-15-3z" fill="gray"/>
<path transform="translate(852,385)" d="m0 0h30l17 3 16 5 16 8 9 6 6 5 9 11 6 10 6 13 4 16 1 6v30l-3 17-5 16-5 12-8 15-10 13-8 9-11 9-15 10-16 8-18 6-20 4h-34l-20-4-14-5-14-7-12-9-12-12-9-14-6-15-3-14v-30l4-24 6-17 8-16 10-14 13-14 14-11 14-9 17-8 20-6zm4 45-17 3-15 6-10 6-11 9-8 9-8 14-5 16-1 7v25l3 12 6 12 10 11 14 8 16 4h19l14-3 13-5 12-7 11-9 9-11 8-16 4-15 1-10v-14l-3-15-8-16-9-9-12-7-13-4-7-1z" fill="gray"/>
<path transform="translate(1598,390)" d="m0 0h59l26 2 24 4 20 6 16 8 12 9 10 11 8 15 4 14 2 17v11l-2 20-5 19-7 16-10 16-12 13-7 7-15 11-19 10-27 9-21 3-15 1h-83l2-18 28-199 1-4zm32 46-4 25-14 99v7h31l18-2 17-4 12-5 11-7 10-10 8-13 5-12 3-14v-17l-3-13-5-10-9-10-9-6-13-5-16-3z" fill="gray"/>
<path transform="translate(1195,113)" d="m0 0h80l21 2 22 4 21 7 15 8 11 9 9 11 8 16 4 17 1 9v16l-2 18-5 19-7 16-9 14-12 14-11 10-15 10-15 8-19 7-18 4-19 2h-91l5-38 25-177zm43 45-7 48-11 77v6h37l20-3 16-5 14-8 10-9 7-10 7-14 4-16v-20l-3-12-6-11-9-10-11-6-16-5-15-2z" fill="gray"/>
<path transform="translate(1477,112)" d="m0 0h30l20 2 17 4 11 5 9 6 5 5 5 6 4 8 3 13v16l-3 14-5 13-9 14-11 11-14 8-15 5 13 27 13 28 14 30 2 7h-59l-22-57-11-28v-3h-25l-2 18-9 65-1 5h-49l1-13 26-185 3-21 1-2h33zm-15 42-4 26-3 24 18 1h22l16-3 9-5 5-6 4-10 1-9-3-7-7-6-14-4-9-1z" fill="gray"/>
<path transform="translate(1014,113)" d="m0 0h152l-2 19-4 26h-103l-1 13-4 28h96l-1 12-4 29-1 4h-97l-1 11-5 34h108l-3 24-3 21h-158l7-51z" fill="gray"/>
<path transform="translate(577,391)" d="m0 0h152l-6 44-1 1h-102l-2 17-3 21-1 3h97l-5 38-2 7h-96l-6 45h107l-1 14-4 29-1 2h-157l2-18 25-178z" fill="gray"/>
<path transform="translate(1051,390)" d="m0 0h47l20 3 16 5 12 7 8 8 6 10 3 10 1 7v12l-2 13-5 16-6 11-7 9-7 7-13 8-13 5-14 3-24 2h-39l-1 14-10 71-1 1h-48l-1-2 31-219zm-3 42-1 1-6 44v7l26 1 15-1 12-3 10-6 4-5 4-11v-9l-4-9-9-6-13-3z" fill="gray"/>
<path transform="translate(888,112)" d="m0 0h28l20 2 17 4 16 8 10 9 6 10 3 9 1 5v19l-4 18-7 16-9 12-9 8-14 8-16 5-12 2-11 1h-47l-6 45-6 41h-49l1-14 26-183 3-22 1-2h33zm-15 42-4 26-3 22v5h36l16-3 8-4 5-4 5-9 1-4v-12l-3-6-7-6-7-3-14-2z" fill="gray"/>
<path transform="translate(1435,391)" d="m0 0h50l-7 51-17 121-1 4h91l-3 25-3 19-1 1h-139v-8l28-199z" fill="gray"/>
<path transform="translate(469,407)" d="m0 0h4l-3 22-21 135-1 3h91l-2 18-4 27h-140v-9l20-156 4-4 19-12 17-12 12-9z" fill="gray"/>
<path transform="translate(1043,664)" d="m0 0h9l4 25 6 43 20-45 10-23h10l2 7 9 59 1 1 16-38 12-28 1-1h9l-5 13-14 31-14 32-2 5h-11l-10-64-1-3-18 41-11 25-1 1h-10l-5-30-7-45z" fill="gray"/>
<path transform="translate(1372,668)" d="m0 0h9l8 3 6 7 2 5 1 6v11l-3 16-5 11-6 9-8 6-9 3h-7l-9-3-6-7-3-9v-18l3-13 7-14 8-8 8-4zm1 13-6 4-5 10-4 16v14l3 5 3 2 5-1 6-7 4-11 2-9 1-12-2-8-3-3z" fill="gray"/>
<path transform="translate(1482,669)" d="m0 0h39l-1 9-1 5-26 1-4 11h10l9 4 5 6 2 4v14l-4 9-7 7-12 5-6 1h-9l-11-2-4-2 3-11 1-2 10 2h10l9-4 2-3v-9l-4-4-8-2h-14l2-10 8-28z" fill="gray"/>
<path transform="translate(1429,668)" d="m0 0h11l8 3 7 6 3 8v7l-4 11-7 9-11 10-8 6 23 1 1 2-2 11-1 1-50 1 1-11 11-9 10-8 10-9 7-8 2-5-1-8-5-3h-9l-10 3-3-8 1-5 11-4z" fill="gray"/>
<path transform="translate(1306,668)" d="m0 0h10l9 3 6 5 3 6v13l-4 9-7 9-14 12-5 3 24 1-1 11-2 4h-49l-1-2 2-9 8-7 13-10 12-11 6-9v-9l-3-3-2-1h-9l-11 3-2-7v-5l8-4z" fill="gray"/>
<path transform="translate(479,663)" d="m0 0h20l10 4 8 6 6 9 2 6 1 14-2 12-6 12-9 10-12 7-9 3-5 1h-14l-13-4-8-6-6-9-3-14 1-14 4-11 6-9 8-8 14-7zm3 7-12 4-9 6-7 8-4 9-1 4v18l4 9 5 6 7 4 13 2 11-2 12-6 6-5 7-11 2-7 1-12-2-10-5-8-7-6-9-3z" fill="gray"/>
<path transform="translate(991,663)" d="m0 0h20l12 5 7 6 5 8 2 7v20l-4 12-8 11-10 8-12 5-8 2h-14l-13-4-9-7-5-8-3-12v-9l2-11 4-10 8-10 10-7 12-5zm3 7-10 3-10 6-8 9-4 8-2 11 1 13 5 10 7 6 7 3 10 1 11-2 12-6 5-4 7-10 3-9v-18l-4-10-9-8-9-3z" fill="gray"/>
<path transform="translate(738,663)" d="m0 0h19l11 4 10 9 4 8 2 8v14l-3 12-7 11-8 8-16 8-9 2h-14l-10-3-8-5-7-8-4-11v-18l4-13 7-10 9-8 12-6zm3 7-13 4-11 8-6 8-4 13v15l4 10 5 5 5 4 6 2 9 1 12-2 10-5 9-8 5-8 3-12v-12l-4-11-5-6-10-5-4-1z" fill="gray"/>
<path transform="translate(541,664)" d="m0 0h31l10 2 9 4 8 7 5 10 1 3v18l-4 12-7 10-10 8-8 4-12 3-21 1-14-1 7-51 4-28zm7 8-3 17-6 42v7h19l15-3 10-6 8-9 4-8 1-4v-16l-5-10-7-6-7-3-5-1z" fill="gray"/>
<path transform="translate(388,664)" d="m0 0h34l8 3 6 7 1 3v12l-4 8-5 5-7 4-7 1 13 27 4 9v2h-10l-15-32-1-5h-15l-1 13-3 22-1 2h-8l1-12zm7 8-3 22v6h21l9-3 5-6 2-6-1-6-5-5-7-2z" fill="gray"/>
<path transform="translate(885,664)" d="m0 0h8v8l-4 27h44l5-35h8v8l-10 70-1 3h-8l1-13 4-25h-45l-1 14-3 21-1 3h-8l1-13 9-63z" fill="gray"/>
<path transform="translate(1207,659)" d="m0 0h14l1 2-16 113h-15l1-12 14-98z" fill="gray"/>
<path transform="translate(622,664)" d="m0 0h51l-1 7-1 1h-42l-1 12-2 13-1 2h39l1 3-1 5h-40l-1 11-3 20h43v7h-53l11-78z" fill="gray"/>
<path transform="translate(844,662)" d="m0 0h14l8 4 5 5v2l-6 4-4-2-5-4h-12l-10 5-4 6v8l5 6 21 8 7 6 3 7v9l-4 8-7 7-10 5-4 1h-16l-8-4-6-7 3-3 6-3 4 5 5 3 4 1h8l9-4 5-6 1-6-3-7-8-6-15-5-8-7-3-7v-7l5-10 8-7z" fill="gray"/>
<path transform="translate(685,664)" d="m0 0h8l-1 11-10 70h-9l7-51 4-28z" fill="gray"/>
<path transform="translate(74,445)" d="m0 0h4l2 4v6l-6 12-2 6-9 1-1-4v-7l3-10 4-5z" fill="gray"/>
<path transform="translate(437,281)" d="m0 0" fill="gray"/>
<path transform="translate(738,106)" d="m0 0" fill="gray"/>
</svg>
