<?xml version="1.0" encoding="UTF-8"?>
<svg version="1.1" viewBox="0 0 864 864" width="864" height="864" xmlns="http://www.w3.org/2000/svg">
<path transform="translate(732,355)" d="m0 0 6 1 17 13 3 4-1 5-10 11 1 5 5 12 3 14v11l-3 14-6 12-8 9-6 4h-2l1 3 10 6 8 8 5 10 2 7v16l-3 12-6 11-6 7-11 8-16 7-17 3h-20l-16-3-12-5-8-5-9-9-7-14-2-7v-13l2-2h29l3 2 4 11 5 6 8 4 5 1h18l11-4 6-5 3-6 1-10-3-8-5-5-13-4-18-1-15-3-13-5-11-8-7-7-7-12-4-12-1-6v-22l4-15 6-11 9-10 11-8 11-5 12-3 9-1h12l15 3 11 3 2-4zm-47 40-12 4-10 9-4 8-1 3v15l4 9 5 7 10 6 6 2h11l11-4 9-8 5-10 1-5v-8l-3-10-6-9-9-6-9-3z" fill="gray"/>
<path transform="translate(141,302)" d="m0 0h20l5 5v63l6-4h10l15 5 11 7 10 9 7 10 6 12 3 13v21l-3 13-8 16-12 12-10 6-12 5-14 3-6-1-3-4-1-71-6 8-6 4-3 1-35 1-7-2-2-4v-95l3-11 8-11 8-6 10-4z" fill="gray"/>
<path transform="translate(477,364)" d="m0 0h14l10 3 9 6 7 10v2h2l2-4 7-8 9-6 9-3h20l13 4 8 6 7 8 5 11 3 12 1 14v64l-3 5h-29l-3-3-1-69-3-10-4-5-4-2-8-1-8 2-5 4-4 10-1 68-2 5-1 1h-29l-2-2-1-66-2-11-4-7-8-4h-11l-7 4-4 6-2 7-1 68-3 5h-29l-3-5v-109l2-6 1-1h25l3 3 1 8 5-5 9-6z" fill="gray"/>
<path transform="translate(272,308)" d="m0 0h26l4 2 1 2v66l14-10 11-4 6-1h14l16 3 14 7 11 10 7 11 5 14 2 14v10l-2 14-6 15-6 9-10 10-11 6-13 4-7 1h-12l-14-3-10-5-9-8h-1l-2 10-3 3h-27l-3-4v-170l2-5zm60 87-10 4-7 5-6 9-2 6v16l5 10 5 6 8 5 6 2h13l10-4 9-8 5-10 1-3v-13l-4-10-8-9-10-5-4-1z" fill="gray"/>
<path transform="translate(172,366)" d="m0 0h10l15 5 11 7 10 9 7 10 6 12 3 13v21l-3 13-8 16-12 12-10 6-12 5-14 3-6-1-2-2-1-84v-34l2-8z" fill="gray"/>
<path transform="translate(516,296)" d="m0 0h5l1 1 1 12 6-3h9l8 6 3 9-1 9-4 7-8 4-9-1-5-2-1 3h-5l-2-5 1-39zm12 17-5 5-1 8 3 6 5 2 6-1 4-4 1-8-3-6-4-2z" fill="gray"/>
<path transform="translate(566,306)" d="m0 0 10 1 4 1 1-1h6l1 15v16l-1 3h-6l-1-3-6 3h-9l-6-3-4-5-2-7 1-9 5-8zm2 7-5 4-2 5 1 6 4 5 6 1 5-2 3-5v-7l-3-5-4-2z" fill="gray"/>
<path transform="translate(683,306)" d="m0 0h8l7 3 6 7 1 2v10l-4 8-6 4-3 1h-8l-8-4-4-5-2-10 3-9 7-6zm2 7-6 5-1 8 3 5 2 2 6 1 6-3 2-3v-9l-4-5-2-1z" fill="gray"/>
<path transform="translate(611,306)" d="m0 0h7l6 4 2 4 1 6v19l-1 2h-7l-1-7v-13l-2-6-6-1-3 1-2 9v10l-1 7h-7l-1-6 1-28h7v2z" fill="gray"/>
<path transform="translate(646,306)" d="m0 0h8l8 4 3 5v4h-7l-3-4-8-1-4 4-1 2v7l3 5 7 1 4-1 2-4 5-1 2 1v5l-5 5-6 3h-7l-8-4-4-5-2-5v-7l4-8 6-5z" fill="gray"/>
</svg>
