<?xml version="1.0" encoding="UTF-8"?>
<svg version="1.1" viewBox="0 0 2048 1376" width="238" height="160" xmlns="http://www.w3.org/2000/svg" fill="gray">
<path transform="translate(849,310)" d="m0 0h27l22 2 23 5 20 8 18 10 13 10 12 11 11 14h4l19-13 22-14 22-12 21-9 19-6 20-4 20-2h27l22 2 19 4 19 7 16 8 12 8 10 8 12 11 10 13 10 17 6 15 4 14 3 21 1 751 1 26 3 15 4 9 7 11 8 6 10 4 13 1 16-4 14-6 18-11 20-14 18-11 9-3h6l3 3-2 9-10 22-10 17-11 15-9 12-9 10-7 8-19 19-11 9-10 8-19 11-17 8-31 11-5 2h-30l-27-11-19-8-11-7-14-12-9-10-10-15-8-17-6-18-4-19-2-20-1-240v-498l-1-30-3-26-5-17-6-11-9-10-10-6-15-4h-23l-16 5-19 10-27 18-1 3 2 4 1 499-3 2h-114l-12-3-10-5-10-9-6-9-4-9-1-4-1-20-1-406-3-28-6-19-7-12-8-8-12-6-12-3h-22l-19 5-16 7-20 11-21 14-13 10-21 16-16 12 2 4 20 20 11 14 14 19 15 25 12 25 8 21 7 26 4 22 2 20v33l-3 29-6 27-10 30-12 26-10 18-12 18-9 12-8 10-11 12-22 22-11 9-8 7-17 12-15 10-19 11-23 12-28 12-36 12-32 8-27 5-31 4-30 2h-31l-35-3-34-5-30-7-42-12-25-9-21-9-25-12-17-10-18-13-14-12-11-11-11-15-8-16-4-13v-13l3-13 8-15 9-10 8-7 16-8 12-3 11-1 22 1 16 3 12 5 13 7 9 7 8 8 8 13 9 21 9 14 11 12 14 11 12 7 17 7 16 5 19 4 28 3h23l32-4 24-5 25-8 25-10 19-10 24-16 10-8 12-11 15-15 8-10 9-13 9-15 8-16 8-20 6-21 5-25 1-10v-32l-4-28-5-23-9-27-9-20-8-15-10-16-14-19-11-13-14-15-12-11-14-11-18-14-17-11-24-14-15-8-24-11-29-11-28-9-12-6-5-5-2-5 4-8 6-4 8-2 32-2h18l33 2 28 4 33 7 31 9 27 10 24 11 25 13 13 8 5 1 13-9 25-16 23-15 18-11 15-10 22-13 22-12 25-12 23-9 21-6 15-3z" fill="gray"/>
<path transform="translate(124,1162)" d="m0 0h894l1 2v99l-2 12-6 12-11 11-10 5-8 2-9 1-95 1h-783l-7-1-1-13v-77l1-20 7-14 7-8 10-7 8-4z" fill="gray"/>
<path transform="translate(315)" d="m0 0h55l31 7 42 10 29 8 25 9 23 10 17 9 16 10 14 10 13 11 13 13 10 14 8 16 4 13v14l-4 13-6 12-9 11-11 8-12 5-10 2h-25l-16-4-17-8-10-8-8-9-8-16-7-16-8-14-8-10-11-9-13-8-25-10-25-5-9-1h-37l-21 3-25 6-24 9-17 8-19 12-14 11-12 11-3 1-2 4-9 9-13 17-11 18-8 15-10 25-5 19-5 29-1 13v19l3 26 7 30 10 26 12 23 11 16 13 16 16 16 14 11 11 8 21 12 18 8 22 7 24 5 31 3h17l25-2 23-4 26-7 22-8 6-3 6 2 8 7 7 8 8 10 9 14 6 11-1 4-9 6-25 13-21 9-19 7-30 8-35 6-22 2h-37l-22-2-29-5-20-5-25-8-25-10-27-13-20-12-16-11-14-11-11-10-8-7-17-17-9-11-10-12-10-15-8-13-9-16-10-23-8-25-8-36-4-23-1-16 2-22 9-45 6-21 8-21 9-19 10-17 10-15 8-11 11-14 12-13 14-14 11-9 8-7 17-12 17-11 16-9 16-8 15-7 25-9 25-7 54-12z" fill="gray"/>
<path transform="translate(1486,809)" d="m0 0 10 1 6 4 8 16 16 36 12 29 3 6v2l3-3 6-14 9-22 13-30 10-19 5-4 6-2h7l2 4v151l-1 2h-9l-7-3-2-8v-87l-1-9-9 21-13 29-11 21-6 7-4-1-7-8-11-23-12-28-9-20 1 31v41l-1 30-2 5-8 2h-7l-2-4v-91l1-60z" fill="gray"/>
<path transform="translate(1984,573)" d="m0 0h22l12 4 8 6 8 9 6 12 2 8 1 9v67l-3 14-6 10-9 10-10 6-12 3h-19l-9-2-10-6-8-9-6-13-2-10-1-10v-58l2-16 5-13 6-8 9-8 9-4zm3 17-8 4-7 7-4 10-1 10v50l1 17 3 12 4 6 5 5 7 3 5 1h9l10-4 7-8 3-8 1-11v-64l-2-13-6-9-6-5-7-3z" fill="gray"/>
<path transform="translate(1862,809)" d="m0 0h24l13 4 10 8 6 8 5 12 2 11v65l-2 19-6 12-9 10-10 6-11 3h-19l-10-3-10-6-8-9-5-10-3-12-1-9v-60l2-14 4-11 6-10 7-7 11-6zm6 17-9 4-6 5-5 10-1 11v58l2 18 5 10 8 6 10 3h8l10-4 5-5 5-6 2-10 1-14v-56l-2-12-6-10-8-6-6-2z" fill="gray"/>
<path transform="translate(1621,573)" d="m0 0h21l10 3 11 7 8 10 5 11 2 15v64l-2 16-4 10-8 11-8 6-10 4-5 1h-22l-10-3-8-6-7-7-6-12-3-12v-74l2-12 5-12 7-9 9-7zm3 17-8 3-5 4-5 8-2 6-1 9v60l2 16 4 9 7 6 8 3 5 1h8l10-4 5-5 4-6 2-11v-76l-4-11-6-7-10-5z" fill="gray"/>
<path transform="translate(1947,809)" d="m0 0 58 1 11 3 7 4 8 10 5 13 1 7v13l-2 10-6 10-11 11-5 3h-2l2 8 8 20 10 26 6 13 1 6-12-1-8-5-5-9-10-23-8-22-4-16v-7l16-8 6-4 4-8 1-5v-9l-4-13-4-6-7-3-6-1h-31l-1 126-2 10-5 3h-10l-2-5v-151z" fill="gray"/>
<path transform="translate(1700,574)" d="m0 0h8l11 3 1 111 2 9 5 8 6 5 8 3h14l8-4 5-5 3-6 1-4 1-38v-23l1-57 11-2h7l1 2v111l-2 15-6 12-9 9-8 5-12 3h-20l-13-4-8-6-7-8-5-10-2-8-1-9z" fill="gray"/>
<path transform="translate(1512,572)" d="m0 0h21l12 3 13 8 6 7-1 7-3 5-6 2-14-8-8-4-4-1h-16l-8 4-6 8-2 5v11l4 8 8 6 11 5 20 7 13 7 6 5 7 10 3 10v20l-5 12-7 9-7 7-8 4-12 3h-16l-16-4-10-5-11-10-3-6 1-5 5-5 6-1 8 5 9 7 9 4 6 1h12l7-3 5-5 4-5 2-5v-14l-5-10-10-6-19-7-16-7-8-6-7-7-4-8-2-9v-13l4-12 6-9 9-8 10-5z" fill="gray"/>
<path transform="translate(1668,337)" d="m0 0h3v11l-2 7-62 1-1 51h55l1 1v11l-2 4-47 1-7-1 1 53 61 1 2 2 1 7v8l-2 1h-79l-2-3-1-121 1-33z" fill="gray"/>
<path transform="translate(1879,336)" d="m0 0h7l5 4 8 25 8 26 15 53 14 48v4l-13-1-5-3-4-8-14-49-14-55-4-10-5 16-8 32-16 58-5 15-3 3h-15l-1-5 5-15 16-57 12-42 10-31 4-6z" fill="gray"/>
<path transform="translate(1668,809)" d="m0 0h8l5 4 4 11 7 25 15 52 15 53 3 8v4l-2 1h-7l-7-3-4-6-8-24-11-41-10-38-4-13-1-1-9 35-11 39-10 35-5 12-5 4h-11l-1-1 1-9 8-27 14-50 10-35 10-29 4-5z" fill="gray"/>
<path transform="translate(1515,337)" d="m0 0h18l12 3 9 6 7 6 5 9 1 7-4 3h-7l-8-4-12-9-6-2h-12l-10 4-5 5-4 10-1 9-1 40v21l2 13 4 10 5 5 10 5h12l10-5 8-7 4-5h9l5 3 1 7-6 8-9 9-12 6-12 2-17-1-13-5-9-8-7-12-3-10-2-21v-41l1-18 3-15 6-12 7-7 8-5z" fill="gray"/>
<path transform="translate(1724,809)" d="m0 0 15 1 6 10 9 20 9 25 4 11 2 2 5-10 12-33 7-16 5-7 7-3h10l1 4-4 10-13 30-11 25-7 16-3 14 1 56-1 2h-11l-6-5-1-4-1-17v-37l-4-12-13-30-13-32-7-16v-3z" fill="gray"/>
<path transform="translate(1693,337)" d="m0 0 17 1v138h22l37 1 3 1 2 13-1 4h-81l-1-8v-149z" fill="gray"/>
<path transform="translate(1811,574)" d="m0 0h54l1 2v153l-2 1h-17l-1-2v-116l1-21h-14l-18-1-3-1-3-8v-5z" fill="gray"/>
<path transform="translate(1885,574)" d="m0 0h52l2 3v8l-3 5-32 1-1 138-3 1h-12l-3-1-1-10v-143z" fill="gray"/>
<path transform="translate(1805,338)" d="m0 0h5l2 2-1 92-1 62-1 1h-16l-2-5v-148l9-3z" fill="gray"/>
<path transform="translate(2028,604)" d="m0 0 4 2 7 2v2h2l1 2 1 9v67l-3 14-6 10-10 9-5 1-4-4-1-8 6-10 1-16 1-54 1-20 2-4z" fill="gray"/>
<path transform="translate(1885,375)" d="m0 0 3 3 3 1 2 5 3 8 6 7 3 10 6 7h3l22 76v4l-13-1-5-3-4-8-14-49-14-55z" fill="gray"/>
<path transform="translate(1876,384)" d="m0 0 1 2-8 32-16 58-5 15-3 3h-15l-1-5 5-15 8-29h2v2l6 1 2-1-1-9 2-8 3-3h2v2h3l2-5 3-9v-8l4-10 5-12z" fill="gray"/>
<path transform="translate(1897,632)" d="m0 0 4 5-2 5 2 3 1 61v23l-2 1h-12l-3-1 1-31 1-4 1-11-1-3 1-1v-10l2-12v-8l4-12z" fill="gray"/>
<path transform="translate(1645,307)" d="m0 0h6l3 2v5l-9 8-10 4-9 1-4-4 6-7 13-8z" fill="gray"/>
<path transform="translate(1596,843)" d="m0 0 3 2 1 3v27l-4 5h-4v-3h2l-1-4h-2l-1-5 2-9v-7z" fill="gray"/>
<path transform="translate(1874,341)" d="m0 0 2 1 3 5v8l-4 1-3-2-3 1 3-11z" fill="gray"/>
<path transform="translate(1701,338)" d="m0 0h9v7l-1 3h-2l-3-5z" fill="gray"/>
<path transform="translate(1547,907)" d="m0 0 3 1-1 7-5-3z" fill="gray"/>
</svg>
