<?xml version="1.0" encoding="UTF-8"?>
<svg version="1.1" viewBox="0 0 2048 1200" width="768" height="450" xmlns="http://www.w3.org/2000/svg">
<path transform="translate(862,292)" d="m0 0h136l7 2 7 6 3 5v150l-3 6-6 5-6 2h-8l-8-4-4-5-2-7v-125h-85l60 120 15 29 10 21 10 19 8 16 12 25 7 9 7 3h9l8-4 6-9 114-228v-1h-85v125l-3 9-5 5-6 2h-9l-8-4-5-7-1-3v-148l4-8 8-5 5-1h138l8 3 5 6 2 9-2 10-46 92-17 35-35 70-17 35-8 16-9 15-11 12-10 6-16 4h-20l-12-3-12-6-7-6-10-14-10-19-8-16-15-31-37-74-19-39-38-76-2-7v-10l3-6 5-4z" fill="gray"/>
<path transform="translate(1438,811)" d="m0 0h14l10 4 9 7 11 14 11 13 18 22 11 13 11 14 11 13 4-1 8-10 11-13 11-14 12-14 9-11 20-25 9-8 11-4h15l14 7 6 7 4 10 1 13 1 98 3 3h114l11 1 7 4 5 7 1 3v8l-5 8-6 5-4 1h-134l-10-3-8-6-7-8-4-8-1-4-1-102-4 2-11 13-27 33-11 13-18 22-9 8-6 3-4 1h-10l-10-3-10-9-12-14-8-10-11-13-11-14-11-13-9-11-9-10-2-1v119l-3 8-6 5-5 2h-9l-6-3-4-5-3-7-1-8v-46l1-80 3-9 6-9 10-6z" fill="gray"/>
<path transform="translate(938,807)" d="m0 0h36l26 3 25 5 13 5 11 6 13 11 6 8 5 10 5 15 2 9 1 9v21l-3 17-5 15-6 12-9 10-7 6-10 6-15 6-15 4-21 3-13 1h-40l-31-3-19-5-16-7-11-7-6-5-9-12-6-12-4-13-2-13v-28l4-20 5-12 7-12 10-10 10-7 13-6 15-4 31-5zm-7 36-22 3-15 5-10 7-7 9-5 13-1 7v22l4 16 7 11 9 8 12 5 20 3 14 1h44l19-2 15-4 10-5 6-5 6-9 4-13 1-6v-21l-3-15-5-10-6-7-13-7-18-4-16-2z" fill="gray"/>
<path transform="translate(412,811)" d="m0 0h213l12 4 10 9 4 8 2 7 1 98 1 11 141 1 10 1 9 6 3 5 1 10-3 7-5 5-6 3h-160l-7-2-9-7-8-9-4-9-1-4-1-108-202-1-7-3-5-6-2-4v-12l6-7z" fill="gray"/>
<path transform="translate(1051,126)" d="m0 0 15 1 28 5 25 7 27 10 16 8 19 10 18 12 16 12 15 13 22 22 9 11 10 13 14 21 15 28 8 20 9 27 5 22 3 22 1 13v47l-2 21-4 22-7 25-11 29-6 10-7 4h-9l-7-6-2-4v-10l7-17 6-17 6-24 4-24 2-18v-31l-3-27-5-25-7-24-13-30-8-15-13-20-14-18-11-12-14-14-11-9-14-11-19-12-18-10-26-11-23-7-31-6-16-3-6-3-5-6-1-9 3-6 5-4z" fill="gray"/>
<path transform="translate(790,577)" d="m0 0h8l6 4 9 10 7 9 11 12 17 17 14 11 17 12 15 9 22 11 15 6 18 6 24 6 24 4 9 1h40l23-3 26-6 21-6 26-11 21-11 19-12 13-10 11-9 15-14 7-8 10-12 6-8 5-5 6-3h8l6 3 4 8v8l-4 8-9 11-12 14-21 21-11 9-13 10-15 10-17 10-16 8-11 5-26 10-23 6-19 4-35 4h-29l-35-4-30-6-21-7-32-13-24-13-12-8-17-12-13-11-10-9-17-17-9-11-8-10-5-10v-8l3-6z" fill="gray"/>
<path transform="translate(998,126)" d="m0 0h6l7 4 4 7v8l-4 7-9 4-39 7-26 7-20 8-21 10-20 12-16 12-10 8-13 12-14 14-11 14-11 15-13 22-11 23-8 21-7 28-5 32-1 12v26l3 27 5 25 7 24 10 25 1 10-4 7-6 4h-10l-6-4-5-9-6-15-7-20-5-18-5-28-2-23v-38l3-29 5-24 6-21 10-27 11-22 11-19 14-20 11-13 9-11 15-15 8-7 15-12 17-12 16-10 23-12 23-9 24-8 23-5z" fill="gray"/>
<path transform="translate(142,811)" d="m0 0h10l6 3 6 7 14 27 40 80 10 18 6 5 8 2 9-2 6-4 14-26 50-100 7-8 5-2h11l8 5 5 8v8l-4 9-20 41-37 74-7 11-9 10-11 7-13 4-16 1-15-2-12-5-8-6-8-8-10-17-22-44-20-41-14-28-2-6v-9l3-6 5-4z" fill="gray"/>
<path transform="translate(1138,810)" d="m0 0h142l14 1 6 4 4 5 1 3v8l-3 6-6 5-5 2-75 1h-35l-70-1-9-3-5-4-3-6v-10l4-6 8-4z" fill="gray"/>
<path transform="translate(1737,811)" d="m0 0h174l6 3 5 5 1 3v12l-4 6-5 4-2 1-35 1h-130l-12-1-6-5-4-8v-9l3-6 4-4z" fill="gray"/>
<path transform="translate(1344,811)" d="m0 0h12l8 5 4 6v151l-3 6-5 5-4 2h-11l-7-3-5-8-1-4v-150l6-7z" fill="gray"/>
<path transform="translate(412,881)" d="m0 0h112l8 4 5 6 1 3v9l-6 9-7 3-22 1h-85l-9-2-6-4-4-7v-10l3-6 8-5z" fill="gray"/>
<path transform="translate(1740,881)" d="m0 0h108l9 3 6 7v13l-3 5-4 4-7 2h-111l-6-3-5-6-2-6 1-9 3-5 8-4z" fill="gray"/>
<path transform="translate(1195,869)" d="m0 0h8l7 3 6 7 2 5v82l-1 9-5 7-8 4h-10l-6-3-5-6-2-6v-88l3-7 6-5z" fill="gray"/>
<path transform="translate(421,949)" d="m0 0h45l15 1 7 4 6 7 1 3v8l-4 8-6 5-2 1-16 1h-45l-12-1-6-4-4-6-1-3v-11l4-6 5-4 5-2z" fill="gray"/>
<path transform="translate(1387,1044)" d="m0 0h88l4 2v8l-1 1-102 1-1 4v16l2 4 4 1 32 1-1-11 2-5 6-1 4 4v22l-1 1h-40l-11-2-6-5-3-8v-18l4-8 5-4 5-2z" fill="gray"/>
<path transform="translate(506,730)" d="m0 0h8l8 4 5 6 1 3v9l-4 7-9 10-12 12-8 6-4 2h-10l-6-3-5-6-2-5 1-9 4-6 11-12 14-14z" fill="gray"/>
<path transform="translate(1242,1044)" d="m0 0 13 1 8 4 8 9 10 14 8 9 2 1v-36l1-1h8l3 2v44l-1 1h-12l-9-3-9-9-9-12-9-11-3-1v32l-3 4-8-1-1-1v-45z" fill="gray"/>
<path transform="translate(1041,1045)" d="m0 0h15l8 4 7 7 10 14 9 10 3 2v-36l1-1h8l2 1v45l-1 1h-13l-8-4-6-5-9-12-10-13-4-3-1 36-7 1-4-2-1-44z" fill="gray"/>
<path transform="translate(729,1044)" d="m0 0h33l12 1 8 4 3 5v10l-5 9 4 5v12l-6 2-4-2-3-12-43-1-3-3 1-7 47-1v-7l-1-4-44-1-3-2 1-6z" fill="gray"/>
<path transform="translate(576,1044)" d="m0 0h86l4 1v8l-1 1h-21v37h-10l-1-1v-36h-58l-2-1v-7z" fill="gray"/>
<path transform="translate(871,1044)" d="m0 0h9l6 3 7 10 12 23 2 5v5l-3 2-5-1-3-3-15-29-4-5h-4l-8 16-10 18-4 4-5-1-2-2 1-7 12-23 7-11z" fill="gray"/>
<path transform="translate(1168,1045)" d="m0 0h6l3 3v42l-2 2-8-1-1-1v-43z" fill="gray"/>
<path transform="translate(969,1045)" d="m0 0h7l3 2v43l-4 2-6-1-1-2v-43z" fill="gray"/>
</svg>
