<?xml version="1.0" encoding="UTF-8"?>
<svg version="1.1" viewBox="0 0 2048 2048" width="768" height="768" xmlns="http://www.w3.org/2000/svg">
<path transform="translate(996,74)" d="m0 0h23l23 4 14 4 14 6 11 7 11 9 10 11 10 16 9 21 5 19 5 32 2 29 1 18 21-10 18-8 11-8 11-9 13-10 16-10 16-7 14-3h28l19 3 13 4 13 6 10 6 10 8 8 8 10 14 8 17 7 21 4 22 3 28 1 52 2 54 3 47 4 42 9 87 7 58 5 42 8 64 8 59 16 120 7 51 8 61 7 60 3 27 5 68 7 72 2 22 3 7 3 6-1 10-5 17-6 11-7 8-6 3-6-1-15-7-9-2h-7l-5 3-3 7-2 16v67l1 44 2 45 3 8 7 11 7 9 9 9 16 9 13 7 4 5 1 5-1 24-5 30-3 15-2 3-9-3 1-11 5-26 2-16v-17l-16-8-11-7-10-9-8-9-9-15-2-6-28 9-26 6-12 2 8 6 2 2 1 5-3 5-1 1h-9l-8-4-9-12-3 3-5 10-11 12-5 6-5-1-3-4v-8l4-11 7-11-1-1-45 6h-40l-2 7 5 2 7 6 2 9-1 21-6 40-3 13h-7l-3-2 1-10 5-30 2-16v-20l-5-2-17-8-13-10-9-9-11-16-5-10-7 1-19 6-32 8-13 2 9 6 2 4v7l-4 4h-7l-10-5-7-9-3-5-8 14-9 10-7 9-6 1-4-4v-11l5-12 7-11-50 6h-41l-7 15-6 11-8 9-8 4-18 5-6 2-1 5v14l5 32 6 23 3 10v5l-9 1-4-10-7-27-4-24-1-7v-19l3-9 5-4 15-5 11-4 6-4 6-10-2-5-8-13-4-8-7 1-15 5-29 7-13 2 9 8 1 7-5 5-8-1-9-6-7-10-2-1-2 6-6 10-7 8-4 4-3 4-5-1-3-7 2-11 5-10 5-6-18 2-28 3h-39l-3 9-9 17-7 7-8 4-20 6-2 4v14l4 23 7 29 2 6v5l-5 2h-4l-6-18-7-33-2-13v-16l4-10 6-4 21-6 4-3h2l2-4 7-12 10-27 3-14v-17l-4-13-9-17-3-3v-2l-4-2-7-3-11-2-17-2-13-4-12-9-10-9-8-7-17-17-9-11-10-13-12-19-11-20-11-25-7-23-4-20-1-9v-36l3-26 9-40 7-25 12-38 10-29 18-49 12-32 17-45 11-29 18-48 20-57 12-36 8-30 7-34 5-32 3-32 2-39v-61l-2-45-4-48-9-64-7-38-6-30-8-33v-4l-86-3-22-2-6-2 3-3 16-8 32-15 33-15 18-8 14-9 14-13 13-10 16-10 15-7 16-4h21l25 4 16 5 16 8 14 11 11 13 10 17 7 19 5 18 3 21 1 12 1 83 3 46 8 91 6 51 6 54 6 44 1 18h2l4-17 8-38 4-24 4-37 3-39 1-19v-56l-2-41-5-65-5-39-7-46-11-58-9-38-1-1-31-1-60-1-21-1-17-2v-3l8-5 32-15 33-15 29-13 16-8 10-9 11-10 16-12 15-9 15-7 14-4zm4 12-15 3-13 5-16 9-12 9-11 9-8 7-4 6 13 11 7 7 1 6-9 15-1 2v8l6 26 6 28 8 42 10 64 5 51 4 48 1 18v87l-3 42-5 44-5 30-9 41-11 37-13 37-11 31-19 52-16 43-22 58-15 40-14 38-16 46-9 28-9 31-9 38-3 19-2 22v26l2 17 2 2 5-8 11-25 18-43 12-30 11-25 12-25 10-16 11-14 12-11 8-7 14-12 14-10 23-12 24-10 24-8 20-4 9-1h40l19 3 21 7 16 8 12 8 12 11 8 8 12 18 11 23 12 37 9 39 1 7v53l3 32 3 8 5 4 16 3h5l1-1v-17l-6-57-6-73-5-56-3-37-13-101-6-44-6-46-11-80-5-38-10-71-5-40-5-37-7-61-5-43-8-76-4-54-3-50-1-72-2-23-4-28-5-16-6-15-9-16-11-12-8-7-15-9-13-5-19-4-17-2zm-92 52-25 12-29 13-15 6-9 5v1h10l26-6 31-6 31-8v-4l-10-9-5-4zm22 20-14 5-41 9-21 4v2l48 1h18l8-12 5-7v-2zm325 39-15 4-19 10-16 12-13 11-2 1 1 4 17 16 1 4-9 17 1 9 7 27 11 52 9 53 6 49 4 35 2 30 1 29v58l-2 40-4 36-7 45-10 42-12 38-7 19-2 8 1 18 5 40 6 44 6 47 9 60 3 15 6-1 16-6 23-5 12-2 12-1h12l17 2 20 4 15 5 19 10 14 11 9 9 9 12 9 16 6 14 8 24 8 29 4 23v51l2 23 3 12 5 5 5 2 13 1 1-1v-16l-7-72-5-66-9-81-8-60-5-40-6-44-8-59-7-55-6-43-6-47-5-40-7-58-5-46-8-76-6-84-1-20-1-63-3-39-4-23-6-18-8-16-9-13-10-10-14-9-20-8-14-3-8-1zm-483 9-13 4-14 7-16 11-14 12-9 9 2 4 12 11 3 7-6 12-7 10-1 5 6 25 11 52 9 57 4 28 4 45 3 42 1 26v41l-2 42-4 42-4 29-9 43-12 41-15 43-9 25-16 44-15 40-13 34-16 43-18 49-14 40-8 25-9 31-9 45-2 16v36l3 18 4 15 3 4 1-26 4-13 11-26 20-49 12-28 8-17 11-19 10-13 11-11 11-9 11-10 13-9 23-12 29-12 19-5 25-4 9-1 3-4 9-25 22-59 13-34 33-88 30-84 5-16v-15l-8-65-5-43-9-80-8-87-2-29-1-20-1-81-2-22-5-23-7-21-10-18-12-13-10-8-15-7-12-4-18-3zm404 35-19 9-24 12v7l13-1 34-7 16-5-6-7-9-8zm-484 12-23 11-27 12-24 10-2 2h10l22-5 27-5 35-8v-4l-5-5-9-8zm503 8-23 7-21 4-18 2v4l3 1 34 1h16l8-11 4-6v-2zm-485 12-19 6-20 4-29 5-3 2 5 1 28 1h29l7-9 5-8v-2zm424 15-1 1 1 36 3 47 4 40 8 78 6 48 6 51 5 38 6 47 6 45 10 72 3 24 1 2 3-1 8-25 7-25 9-41 6-44 3-30 1-11 1-31v-39l-1-32-4-48-6-55-9-56-5-26-8-37-7-24-1-2-7-1-33-1zm-97 729-1 1-5 40-2 24-4 1-3-3-1-3v-10l3-24 4-20v-5l-7 1-2 8-3 30-1 17-2 5-4 1-2-6v-24l3-21 1-9-9 2-5 35-2 16-2 5-5-1-1-2v-18l4-24 2-9-11 3-6 3-3 19-4 29-3 9-4-2-1-2v-14l5-29 1-6-9 3-6 3-2 24-3 21-1 2-5-1-1-3v-9l4-25 1-6-10 5-1 1-4 32-3 13-1 2-5-1-1-6 3-24 2-10-5 2-7 6-2 32-1 7h-6v-30l-5 3-6 6-2 31-6 2v-25l-4 2-6 8v20l-5-1-3-5-5 5-13 26-13 31-11 27-14 35-13 34-4 15-2 10v8l4 12 14 29 13 21 10 14 11 14 9 10 7 8 18 18 12 9 12 5 32 4 12 6 6 5 9 14 9 21 14 8 38 19 16 6 20 7 9 4 8-1 5 2 15-9 13-10 14-12 10-9 8-7 11-14 9-11v-108l2-16 5-13 5-5 4-2h18l12 3 13 5 4-2 7-10 5-15 1-5v-8l-2-2-27-5-8-4-6-7-3-9-4-42v-10l1-9v-23l-4-20-5-22-1-2h-2l-4 5h-2l-1-33-4-12-2-2-1 2-2 33-4-1-3-9 1-19 3-16-1-7-1-2h-2l-3 17-2 19-5-3v-21l2-17v-9l-4-2-3 25-2 19-5-2-1-5v-13l3-27v-8l-7-4-4 32-3 15v3l-5-1-1-2v-19l4-30v-6l-9-5-1 2-1 27-2 20-2 4-5-1v-24l2-23 1-8-6-3h-3l-1 6-2 55-2 3-3-1-2-10-1-11v-18l1-17 1-10-5-2h-3l-5 37-5 24-1 4-5-1-1-3v-10l4-31 2-14v-7l-1-1h-6l-2 15-4 45-1 2h-5l-2-4v-17l3-29 1-12-1-1zm-239 49-3 2-3 22-1 10v10l3-3 6-24 3-13v-4zm-17 3-3 3-4 24-2 19-2 6-4 1-2-9 1-15 3-17 2-9-12 3-4 2-3 20-4 31-4 1h-2l-1-11 4-29 1-7-6 1-7 4-3 34-1 9-6-1-1-2v-11l3-18 1-8-10 5-6 42-3 1h-3v-12l4-21v-4l-5 2-5 5-1 6-2 24-1 5-5-1v-25l-4 2-6 6-1 20-1 7-6 2v-21l-4 2-5 7v16l-6-2h-3l-5 8-13 27-11 27-29 70-3 12-2 16v12l3 18 5 13 10 17 12 17 8 10 11 13 12 13 15 14 10 8 10 6 30 5 9 4 6 4 7 8 11 23 3 5 8 5 36 18 30 11 17 6 1-3 5 3 6-2 16-10 26-22 10-9 13-17 4-4v-25l-1-1-28-3-9-3-11-8-17-16-8-8-7-8-9-10-11-14-10-14-10-17-4-6-7 6-9 6-11 4h-18l-13-4-9-8-1-6 8 6 6 4 6 2 7 1h11l10-3 11-8 5-4v-3l-13 1h-15l-16-2-18-4 1-4 9 1 16 3h31l2-2-7-19-8-24-5-30-1-8v-34l4-33 6-29 7-30-1-5-3-5v-22l3-22v-5zm505-3-4 2-4 24-2 27-1 4-5-1-1-5v-14l2-19 3-15-9 1-1 1-6 42-2 8h-4l-1-3v-15l2-17 2-14-14 4-2 5-5 31v11l1 14-4 2v24l4 45 5 46 3 29 3 8-1 12-4 15-6 12-4 7 8 3 6 1h27l21-3-3 5-8 11-7 7-10 6-5 2-6 1h-15l-11-3-9-6-5-8v-2l4 1 5 5 6 4 13 3h13l11-4 11-8 3-3v-2l-29 1-15-2-21-5-16-7-8-2h-10l-5 3-4 8-2 8-1 24v36l1 40 1 12 6 2 24 3 10 5 8 7 8 13 7 17 7 6 44 22 24 8 14 6h10l6 1 16-10 14-11 10-9 11-9 9-10 10-13 3-3v-91l1-20 3-14 5-8 5-4 4-1h13l11 2 15 7 6-7 6-13 3-11v-6l-3-2-24-4-8-4-5-6-4-11-2-13-2-21v-17l1-9v-13l-4-27-4-16-2-1-6 2-1-28-4-11-2-1-1 15v15l-6-1-2-10 1-18 2-13v-5l-3-2-2 12-2 20-5-2-1-2v-17l2-17v-8l-3-1-4 40-6-3v-21l2-19v-8l-5-4h-1l-5 35-2 11-5-2-1-9 3-28 1-14-3-3-5-1-3 35-1 12h-7l1-26 2-26-5-2h-3l-2 44-1 12-1 3-4-1-2-11v-35l1-15-7-1-7 49-3 10h-5v-21l5-39-3-2-4 1-6 55-1 2h-5v-29l3-25v-4h-8l-6 43-1 17-6-1-1-4v-15l3-23 3-14v-3zm-352 394 1 51 1 21 3 9 8 14 3 1 5-12 6-21 1-14-2-12-7-18-7-11-7-7zm238 15v20l1 23 2 13 7 13 9 12 10 10 12 7 3-3 5-13 5-21v-17l-4-14-7-14-9-10-10-4-20-2zm-13 3-10 13-11 12-10 9-11 9-10 8-15 9-9 5 1 2 16-1 23-4 35-10 5-2v-16l-2-34zm-236 13-11 13-7 8-13 12-14 11-11 7-14 8-1 2h12l20-3 37-10 5-3-1-41zm488 7-11 14-14 14-22 18-14 8-9 5v3l18-1 30-7 21-6 5-3-1-27-1-18zm-439 8-2 20-5 20v3l12 1h14l17-1 16-2 26-2 5-1-3-3-32-11-27-14-16-8zm-220 11-3 21-5 18h20l47-3 13-1 3-2-10-5-20-6-16-8-16-9-11-5zm485 7-3 21-3 13v5h38l40-3 5-2v-2l-32-10-27-14-16-8zm-167 17-2 3v4l6 1 2-2-1-5zm-229 6-2 4v3l5 1 2-1v-5l-2-2zm219 7-6 7-5 11-2 7 4-1 7-7 7-11 1-6zm24 0v4l4 5 9 5h3l-1-4-10-9zm244 1-2 6 6 2 2-2-1-5zm-496 5-6 7-5 11-1 6 4-1 9-11 4-7-1-5zm21 1 2 4 8 7 4 1v-4l-9-8zm467 6-8 10-5 11v4l4-2 9-10 4-8-1-5zm20 2 3 5 8 6 5 1v-4l-11-8z" fill="gray"/>
<path transform="translate(512,711)" d="m0 0h25l16 3 16 7 12 9 8 8 3 6 1 5v10l3-1h13l10 2 5 4 1 7-6 9-8 7-4 1 11 15 4 9 1 5v11l-4 11-9 10-13 8-12 4h-3l4 8v6l-4 6-10 6-16 5-7 8-12 6-9 2v2l11 2 9-1 7-1h15l6 3 3 3-1 7-7 6h-2l5 8 2 5v10l-6 8-6 4-9 1 3 3 7 3-1 5-3 3-8-1-23-8-9-5-1-5 3-3 2-1 25-1 10-2 4-3v-6l-1-2-18-3-13-5-6-4-7-6-14-7-11-8-2-7 3-6 8-5 5-2-4-3-13-9-7-9-4-4-23-10-9-6-10-9-7-8-6-9-22-12-11-8-6-9-1-2v-10l6-9 11-10 15-11 13-8 16-9 25-12 24-8zm-2 9-15 3-22 8-25 12-21 12-15 11-11 9-7 7-1 7 4 6 9 7h2l1-8 36-1 18-10 16-7 20-6 19-3h23l15 2 23-8 3-2 1-3v-8l-4-8-9-8-12-7-12-4-9-1zm86 47-16 4v3l17 9 5-1 10-8 3-3v-3l-2-1zm-87 9-26 8-17 7-1 3h8l12-3 15-6 16-6 2-1v-2zm51 6-20 6-3 3 7 1h18l10 2h8l4-3-9-6-7-3zm28 17-6 4 2 4 6-3 2-2v-3zm-61 1-10 2-9 7-5 6v2l22-3 33-10 3-2v-2zm76 1-6 8-7 5-28 10-40 9-34 6-1 1v7l21 5 21 7h18l19-3 21-6 12-5 10-9 3-5 1-3v-11l-3-8-4-6zm-195 1m1 1 4 3 11 6 4-1 3-5v-3zm78 0-12 2-14 7 1 3 11 2h16l10-10 2-4zm-40 1-8 6-3 4v2l13 4 2-1-2-4 1-5 4-4v-2zm120 3-24 10 3 1 17-4 6-4v-3zm-127 20 2 5 8 7 8-1 8-4-2-2-22-5zm31 15-6 2 1 2 9 1 3-1v-4zm24 26 5 6 12 6 3 1h12l8-4v-4l-5-3-6-1zm77 0-12 3-8 4 3 5 5 1 12-4 5-4-1-4zm-49 23-23 11v2l7 5h2l3-5 10-4 13-4 5-3v-2zm36 26-5 1 4 4 6 1 5-3v-2l-3-1z" fill="gray"/>
<path transform="translate(1358,1790)" d="m0 0 6 1 9 10 11 16 14 20 12 17 9 12 5 6v-47l1-33 1-1h8l1 1v102l-2 6-5 3-7-1-7-8-13-19-11-15-12-17-13-18-4-5-1 68-1 14-6 1-3-2v-104l5-6z" fill="gray"/>
<path transform="translate(604,1791)" d="m0 0 7 1 4 4 2 42 8-7 39-39 6-1 3 3-2 5-9 10-29 29-1 4 7 8 37 37 2 3v8l-5 5h-7l-10-9-8-7-13-13-7-8-11-10-2-1 1 6-1 37-4 5h-9l-4-4-1-4v-98l5-5z" fill="gray"/>
<path transform="translate(946,1790)" d="m0 0 5 2 1 5-9 10-33 33 4 6 41 41 2 4v7l-5 5h-6l-8-6-38-38-4-3-1 3-1 38-3 5-2 1h-7l-5-5-1-14v-85l3-6 3-2h6l6 5 1 4v39l8-7 40-40z" fill="gray8"/>
<path transform="translate(1541,1789)" d="m0 0h16l11 3 14 7 4 4v7l-5 1-19-9-8-2h-11l-10 4-10 8-7 11-4 9-2 10v10l4 16 7 12 8 8 9 4 4 1h16l11-3 1-1 1-38 3-6 4-3h6l6 5 1 2v37l-7 8-15 8-13 3h-16l-12-3-10-5-11-9-8-11-6-13-2-6-1-13 2-12 6-15 9-12 8-7 14-7z" fill="gray"/>
<path transform="translate(775,1791)" d="m0 0h7l5 5 5 11 10 28 9 25 11 31v7l-5 5h-9l-3-4-12-31h-39l-3 10-8 21-2 4-3 1-5-3 1-7 13-36 13-35 8-22 5-8zm-2 26-6 15-8 23v3h30l-6-20-7-18z" fill="gray"/>
<path transform="translate(1250,1791)" d="m0 0h6l6 5 13 36 11 30 9 25 1 4v7l-5 5h-8l-4-5-6-15-5-14-1-1h-37l-5 11-8 22-2 2h-5l-2-2 1-8 11-31 13-35 11-30 4-5zm-2 26-4 8-11 30v3h30l-1-6-12-34z" fill="gray"/>
<path transform="translate(1093,1791)" d="m0 0h7l5 4 1 5 1 92 44 1 1 1v9h-60l-4-4-1-5v-97l4-5z" fill="gray"/>
<path transform="translate(1018,1791)" d="m0 0h6l5 3 1 2v102l-5 5h-7l-5-4-1-8v-94l5-5z" fill="gray"/>
<path transform="translate(907,1185)" d="m0 0 18 1 11 4 5 4 3 8v9l-2 10-4 7-6 5-16 5-23 5h-21l-7-3-6-7-4-9-1-8 1-3 5-1 2 11 5 8 4 3 3 1h19l27-6 10-4 4-9v-14l-5-5-7-2h-22l-16 4-12 4h-5l2-4 8-6 11-5 8-2z" fill="gray"/>
<path transform="translate(1055,1201)" d="m0 0h37l17 2 8 4 4 11v20l-4 8-8 4-6 1h-30l-14-3-13-5-1-5 10 1 18 4 18 1 16-1 4-2 1-2v-25l-1-2-13-2-34-1-18 1-5 1v9l1 9h-4l-3-3-1-2v-11l3-6 5-3 6-2z" fill="gray"/>
<path transform="translate(683,1220)" d="m0 0h21l12 3 5 4 3 5 1 4-1 13-4 10-6 5-16 5-24 5h-11l-8-2-6-4-5-8-2-8 1-7 4-1 3 12 4 6 4 3 4 1h13l29-6 8-4 4-9v-12l-3-3-7-2h-25l-19 5-5 2-4-1 5-6 16-8z" fill="gray"/>
<path transform="translate(1311,1238)" d="m0 0h43l13 2 5 3 3 5 1 6v17l-4 8-6 4-5 1h-31l-14-3-10-5-1-5 24 5 10 1h17l10-2 2-4v-20l-1-3-7-2-14-1h-39l-4 1-1 2v16l-5-1-2-2-1-10 3-9 8-3z" fill="gray"/>
<path transform="translate(954,1306)" d="m0 0 27 5 10 1h10l17-2 9-2h5l1 2-9 13-9 10-11 7-9 3-5 1h-10l-15-3-8-4-8-9-1-6 5 2 11 8 7 3 6 1h15l10-4 9-6 6-5 1-2h-40l-19-4-7-3 1-5z" fill="gray"/>
<path transform="translate(1111,1307)" d="m0 0h20l19 5 6 4 1 5-5 4-16 4h-28l-12-3-5-4v-6l5-4 10-4zm2 7-14 3 1 3 10 3h25l12-3v-2l-11-4z" fill="gray"/>
<path transform="translate(835,1306)" d="m0 0h20l-2 4-8 2-16 3-6 3 6 1h32l10-2v-2h-7l-4-1-1-4 1-2h10l9 3 1 1v5l-7 6-10 3-8 1h-23l-12-2-5-3-2-2 1-5 8-5z" fill="gray"/>
<path transform="translate(1365,1337)" d="m0 0h22l17 4 5 3 1 5-5 4-13 4-7 1h-17l-13-3-7-4-1-5 5-5 7-3zm2 6-11 3v2l10 3h26l9-3-2-2-9-3z" fill="gray"/>
<path transform="translate(632,1330)" d="m0 0h9l2 1-1 5-24 4-5 1v2h36l6-2-9-3 2-5h7l9 3 2 2-1 5-5 4-5 2-21 2-19-1-9-3-3-3 1-4 8-5 13-4z" fill="gray"/>
<path transform="translate(941,1629)" d="m0 0h6l4 5 8 32 8 21-1 3h-7l-5-6-7-18-4-17-2-13z" fill="gray"/>
<path transform="translate(1191,1605)" d="m0 0 7 1v10l-2 18-6 25-3 6-4 2-3-1v-10l6-29 3-19z" fill="gray"/>
<path transform="translate(994,1975)" d="m0 0h14l5 3v5l-6-1-8-1-3 1v4l16 6 3 5-1 6-4 5-7 2-13-1-3-3v-6l16 2 2-1-1-3-13-5-4-4v-8l5-5z" fill="gray"/>
<path transform="translate(1220,1975)" d="m0 0h11l5 4 3 7v11l-4 8-5 4h-10l-7-8-1-3v-12l3-7zm4 5-3 3-1 2v13l2 4 4 1 4-3 1-4v-9l-2-6z" fill="gray"/>
<path transform="translate(722,1629)" d="m0 0h6l3 6 8 29 6 16 1 5-5 1-5-3-4-7-5-15-5-21-1-10z" fill="gray"/>
<path transform="translate(1140,1975)" d="m0 0h12l5 5 1 3v17l-4 7-4 2h-10l-6-7-2-9 1-10 4-6zm4 5-4 4-1 9 2 7 2 2h5l2-3 1-10-2-7z" fill="gray"/>
<path transform="translate(971,1974)" d="m0 0 2 1v5h-17l1 8 16 1v6h-17l1 7 16 1 1 1v5l-4 1-20-1-1-11v-22l1-1z" fill="gray"/>
<path transform="translate(1442,1616)" d="m0 0h5l1 1-1 20-4 24-3 8-4 4-4-1v-9l7-41 2-5z" fill="gray"/>
<path transform="translate(1280,1991)" d="m0 0h101l1 5h-102z" fill="gray"/>
<path transform="translate(805,1991)" d="m0 0h101l1 4-1 1h-101z" fill="gray"/>
<path transform="translate(1178,1975)" d="m0 0h13l5 4 1 7-4 8-6 7-1 2h11l1 1v5l-1 1-23-1-1-4 4-6 7-7 4-7v-4l-9 1-6 1v-5z" fill="gray"/>
<path transform="translate(1100,1975)" d="m0 0h13l3 3 1 9-3 7-6 8 9 1 1 1v5l-3 1-21-1 1-7 10-10 3-5 1-6-15 2-1-4 3-3z" fill="gray"/>
<path transform="translate(1027,1975)" d="m0 0h28l-1 5h-9v28l-1 1h-6l-1-14v-14l-10-2z" fill="gray"/>
<path transform="translate(1084,1216)" d="m0 0h8l5 4 1 2v7l-3 5-4 3h-6l-4-2-3-6v-6l4-6z" fill="gray"/>
<path transform="translate(918,1144)" d="m0 0 9 1 1 5-4 4-15 4h-11l-4-3 1-4 4-3 12-3z" fill="gray"/>
<path transform="translate(1e3 124)" d="m0 0 7 2 3 3 1 5-3 6-6 3h-11l-4-4 1-5 10-9z" fill="gray"/>
<path transform="translate(1341,1251)" d="m0 0h7l5 3 2 6-2 7-5 4h-6l-5-4-1-3v-7z" fill="gray"/>
<path transform="translate(1260,229)" d="m0 0h7l5 3 1 7-5 5-6 2h-7l-4-3 1-6 5-6z" fill="gray"/>
<path transform="translate(887,1206)" d="m0 0 8 1 5 6v6l-5 4-2 1h-6l-4-2-2-4v-6l4-5z" fill="gray"/>
<path transform="translate(775,241)" d="m0 0 7 1 4 4-1 7-5 4-2 1h-10l-3-2 1-7z" fill="gray"/>
<path transform="translate(700,1181)" d="m0 0 5 1 1 1v5l-4 3-18 4-5-1-1-6 9-4z" fill="gray"/>
<path transform="translate(671,1240)" d="m0 0h8l5 5 1 4-5 6-9 1-4-5v-7z" fill="gray8"/>
<path transform="translate(1332,1193)" d="m0 0 6 2 12 5 1 5-2 3h-10l-5-3-4-5v-5z" fill="gray"/>
<path transform="translate(1075,1156)" d="m0 0 9 2 9 5 1 5-4 2-11-1-6-5-1-5z" fill="gray"/>
</svg>
